<?xml version="1.0" standalone="no"?>
<!DOCTYPE svg PUBLIC "-//W3C//DTD SVG 20010904//EN"
 "http://www.w3.org/TR/2001/REC-SVG-20010904/DTD/svg10.dtd">
<svg version="1.0" xmlns="http://www.w3.org/2000/svg"
 width="375.000000pt" height="375.000000pt" viewBox="0 0 375.000000 375.000000"
 preserveAspectRatio="xMidYMid meet">
<metadata>
Created by potrace 1.14, written by Peter Selinger 2001-2017
</metadata>
<g transform="translate(0.000000,375.000000) scale(0.100000,-0.100000)"
fill="#000000" stroke="none">
<path d="M2158 2786 c-52 -27 -88 -74 -88 -115 0 -10 -6 -22 -12 -24 -10 -4
-10 -6 0 -6 6 -1 12 -12 12 -25 0 -13 12 -45 26 -71 15 -26 28 -57 29 -68 2
-36 -32 -93 -69 -115 -104 -61 -73 -211 47 -226 56 -7 123 38 131 86 1 7 5 19
9 26 5 6 4 12 0 12 -5 0 -10 12 -11 26 -1 15 -7 33 -13 40 -15 18 -18 75 -5
104 15 34 26 44 73 69 59 30 102 98 97 153 -4 42 -35 99 -58 108 -12 5 -16 9
-11 10 6 0 -5 7 -24 15 -42 19 -98 19 -133 1z"/>
<path d="M1651 2753 c-16 -8 -32 -24 -35 -36 -9 -35 -7 -69 4 -62 6 3 10 -1
10 -9 0 -36 80 -46 112 -14 29 29 32 70 9 100 -26 32 -61 39 -100 21z"/>
<path d="M1829 2617 c-15 -12 -36 -37 -48 -55 -26 -38 -66 -60 -101 -57 -42 3
-80 17 -80 28 0 6 -3 8 -6 4 -4 -3 -18 0 -33 7 -66 32 -160 -12 -192 -89 -17
-41 -18 -86 -2 -111 7 -11 10 -24 6 -27 -3 -4 -1 -7 5 -7 7 0 12 -7 12 -15 0
-8 5 -15 11 -15 6 0 17 -7 25 -15 9 -8 24 -15 35 -15 11 0 18 -4 15 -8 -7 -11
92 -4 104 8 3 3 14 10 25 16 11 6 38 40 60 77 21 36 42 64 46 61 4 -2 9 1 11
7 5 15 104 15 122 0 7 -6 16 -8 19 -4 4 3 7 2 7 -4 0 -7 14 -8 38 -3 50 10 72
20 72 33 0 6 3 7 7 4 3 -4 15 12 25 35 11 25 15 44 9 46 -5 2 -8 9 -5 17 7 17
-25 87 -36 80 -4 -3 -13 2 -20 10 -20 24 -100 19 -131 -8z"/>
<path d="M2332 2414 c-45 -31 -9 -102 45 -88 31 8 45 54 24 79 -21 26 -41 29
-69 9z"/>
<path d="M1784 2348 c-3 -4 -9 -6 -14 -3 -8 5 -68 -49 -71 -64 -7 -37 -4 -81
7 -103 12 -24 61 -67 74 -65 15 2 70 -24 70 -33 0 -6 4 -9 9 -6 12 8 35 -69
27 -96 -30 -106 -11 -173 64 -221 32 -20 120 -31 120 -15 0 6 3 8 7 5 3 -4 12
-2 20 4 7 6 13 8 13 5 0 -11 51 47 65 74 17 34 13 101 -10 143 -16 30 -66 68
-98 73 -49 8 -67 14 -85 25 -31 19 -52 77 -47 129 2 25 0 59 -6 76 -11 35 -49
72 -67 66 -7 -2 -12 1 -12 6 0 13 -58 13 -66 0z"/>
<path d="M1605 2027 c-30 -26 -39 -61 -23 -90 18 -34 31 -44 52 -39 13 3 17 1
12 -7 -5 -8 0 -8 21 1 41 19 55 35 60 72 8 65 -72 106 -122 63z"/>
<path d="M1237 1429 c3 -11 9 -20 14 -20 5 -1 15 -2 22 -3 8 -1 12 -20 12 -60
0 -50 -3 -60 -19 -62 -28 -4 -37 -26 -18 -40 10 -7 18 -8 20 -3 2 5 8 6 14 3
5 -3 29 -7 53 -8 38 -2 44 1 48 20 3 17 -2 23 -22 27 -25 5 -26 9 -25 55 2 57
10 76 29 68 15 -5 28 31 14 40 -5 3 -40 4 -78 3 -61 -2 -68 -4 -64 -20z"/>
<path d="M1414 1342 c0 -97 2 -108 18 -108 10 0 18 4 18 9 0 4 4 6 8 3 5 -3 8
33 7 79 -1 46 2 82 7 79 4 -3 6 -9 3 -14 -3 -4 -1 -10 5 -12 5 -1 11 -12 13
-23 1 -11 5 -24 8 -30 3 -5 11 -28 18 -50 12 -38 14 -40 54 -40 50 0 53 8 52
130 0 78 -1 80 -25 80 -24 0 -25 -2 -26 -78 -1 -43 -4 -81 -7 -84 -5 -4 -25
54 -33 94 -1 7 -8 26 -16 43 -12 27 -17 30 -58 30 l-46 0 0 -108z"/>
<path d="M1650 1443 c0 -4 14 -51 32 -105 22 -66 37 -98 48 -99 8 0 23 -2 33
-4 9 -2 17 1 17 6 0 6 4 8 8 5 5 -3 19 27 32 67 13 40 27 77 32 84 6 7 7 17 3
23 -3 5 0 10 7 10 17 0 -12 20 -30 20 -10 0 -27 -28 -37 -60 -21 -71 -30 -96
-35 -103 -4 -4 -17 22 -29 59 -29 89 -38 104 -61 104 -11 0 -20 -3 -20 -7z"/>
<path d="M1940 1438 c0 -6 -3 -9 -6 -5 -15 15 -52 -53 -48 -88 2 -11 4 -30 6
-42 1 -12 6 -19 10 -17 4 3 8 -2 8 -11 0 -9 5 -13 10 -10 6 3 10 -1 10 -9 0
-10 9 -16 23 -17 12 0 32 -2 45 -3 12 -2 22 1 22 6 0 5 5 6 11 3 5 -4 22 6 37
22 22 23 27 38 27 81 0 45 -4 55 -29 77 -22 19 -40 25 -78 25 -30 0 -48 -4
-48 -12z m88 -44 c12 -8 20 -19 17 -24 -4 -6 -2 -10 3 -10 6 0 6 -13 -1 -35
-7 -24 -16 -35 -29 -35 -11 0 -17 -4 -13 -10 3 -5 -6 -5 -24 1 -39 14 -56 60
-37 98 17 31 50 37 84 15z"/>
<path d="M2131 1403 c-1 -26 -4 -50 -7 -54 -2 -4 2 -10 8 -13 8 -4 9 -8 3 -11
-6 -3 -9 -23 -7 -45 4 -34 7 -40 28 -40 19 0 24 5 25 28 1 15 1 31 -1 37 -1 5
7 2 17 -6 61 -53 75 -62 101 -63 17 -1 29 4 29 12 0 6 -6 12 -13 12 -7 0 -14
3 -16 8 -1 4 -21 23 -44 43 l-41 36 31 24 c17 13 38 32 47 41 10 9 19 14 22
12 2 -3 7 2 10 11 5 11 0 15 -19 15 -31 0 -60 -15 -89 -46 -19 -21 -24 -22
-29 -8 -3 8 -6 24 -6 35 0 13 -7 19 -23 19 -21 0 -24 -5 -26 -47z"/>
<path d="M2364 1435 c3 -8 2 -15 -3 -15 -9 0 -6 -48 3 -57 3 -3 1 -14 -5 -24
-6 -13 -6 -19 1 -19 5 0 10 -5 10 -11 0 -5 -3 -8 -7 -6 -5 3 -9 -6 -9 -19 -1
-13 2 -24 8 -24 5 0 6 -4 3 -10 -4 -6 8 -10 27 -11 18 0 43 -2 56 -3 12 -2 22
1 22 5 0 4 9 5 20 2 15 -4 20 0 20 16 0 22 -4 24 -61 23 -29 -1 -38 3 -42 18
-3 11 -1 18 3 15 5 -3 11 -1 14 3 3 5 21 8 39 7 29 -2 34 1 33 19 -1 18 -7 21
-43 21 -37 0 -43 3 -43 21 0 18 6 21 48 20 41 -1 47 2 50 22 3 21 1 22 -73 22
-65 0 -76 -2 -71 -15z"/>
<path d="M1125 1114 c-16 -16 -17 -37 -1 -34 5 1 12 -2 15 -7 3 -5 18 -14 34
-20 29 -14 36 -32 12 -34 -8 -1 -21 -2 -27 -3 -7 -1 -21 7 -30 18 -11 13 -18
16 -18 8 0 -7 7 -20 15 -28 18 -18 59 -28 49 -12 -5 7 -1 9 9 5 11 -4 20 1 27
13 8 14 8 20 0 20 -6 0 -9 4 -6 9 3 5 -4 12 -17 16 -12 4 -24 8 -27 10 -3 1
-13 5 -22 9 -13 6 -15 11 -5 21 14 15 32 14 49 -3 20 -20 32 -13 13 8 -22 24
-48 26 -70 4z"/>
<path d="M1330 1119 c0 -6 8 -9 18 -7 23 6 42 -15 42 -46 0 -44 -9 -54 -43
-49 -18 3 -33 6 -34 7 -6 6 -10 56 -4 56 3 0 7 10 8 21 3 30 -15 11 -27 -29
-6 -23 -6 -30 2 -26 7 5 9 2 5 -8 -6 -18 35 -40 64 -35 45 8 64 71 32 105 -17
18 -63 26 -63 11z"/>
<path d="M1644 1123 c4 -8 2 -13 -5 -13 -8 0 -8 -4 -1 -12 5 -7 6 -22 2 -33
-8 -22 7 -65 23 -65 5 0 6 8 2 18 -15 35 -17 62 -5 62 9 0 9 4 -1 17 -8 9 -12
18 -11 20 2 3 0 8 -4 11 -4 4 -4 1 0 -5z"/>
<path d="M1729 1119 c-2 -30 -6 -75 -7 -86 -1 -7 -8 -13 -16 -13 -8 0 -18 -4
-21 -10 -4 -6 1 -7 11 -3 12 4 15 3 10 -5 -4 -8 -2 -10 7 -6 19 7 29 38 29 87
0 37 -11 66 -13 36z"/>
<path d="M1814 1122 c2 -2 12 -5 23 -6 10 -2 17 -11 17 -20 -1 -9 2 -16 7 -16
5 0 9 -5 9 -11 0 -5 -4 -8 -8 -5 -5 3 -9 -1 -9 -9 0 -8 5 -15 10 -15 5 0 4 -6
-2 -14 -8 -9 -8 -16 -2 -20 13 -8 24 11 17 30 -3 9 -1 24 4 34 7 13 7 21 0 25
-16 10 -1 25 17 18 10 -4 14 -2 10 4 -4 6 -27 11 -52 10 -25 0 -43 -2 -41 -5z"/>
<path d="M1999 1118 c-11 -8 -10 -9 3 -5 16 6 28 -11 28 -39 0 -9 -5 -12 -11
-8 -8 4 -8 1 -1 -12 10 -21 5 -47 -8 -39 -5 3 -12 0 -16 -7 -4 -7 -4 -10 0 -6
5 4 19 3 32 -2 19 -7 24 -6 24 5 0 8 -6 15 -12 15 -10 0 -9 3 1 9 8 5 9 11 3
15 -12 7 -4 45 14 66 11 13 9 15 -15 16 -16 1 -35 -3 -42 -8z"/>
<path d="M2169 1109 c-28 -28 -29 -75 -1 -96 19 -15 52 -17 52 -3 0 5 -6 7
-12 5 -36 -13 -60 57 -30 86 18 16 61 10 63 -8 0 -4 2 -18 5 -30 2 -12 -1 -25
-6 -28 -6 -3 -10 -14 -10 -23 0 -27 21 1 29 41 7 28 5 37 -10 48 -10 7 -16 15
-14 18 9 16 -50 6 -66 -10z"/>
<path d="M2355 1122 c-14 -9 -13 -119 0 -119 6 0 11 18 11 39 0 21 -4 38 -10
38 -6 0 -6 4 1 11 13 13 36 3 28 -12 -4 -5 -1 -9 5 -9 6 0 9 -4 6 -9 -3 -5 1
-14 9 -21 8 -7 15 -18 15 -25 0 -7 7 -16 16 -19 8 -3 12 -2 9 4 -3 6 -2 10 2
10 5 0 8 25 9 55 0 54 -8 70 -20 40 -3 -8 -1 -15 4 -15 6 0 6 -9 1 -22 -4 -13
-6 -29 -4 -35 9 -25 -7 -13 -22 17 -9 17 -12 30 -9 30 4 0 -3 8 -14 19 -12 10
-19 21 -15 25 9 8 -10 7 -22 -2z"/>
<path d="M2555 1120 c3 -5 0 -10 -6 -12 -7 -2 -9 -13 -4 -27 4 -12 9 -20 12
-17 3 3 14 1 23 -4 13 -7 20 -6 23 4 4 9 0 13 -11 11 -16 -2 -31 11 -32 26 0
15 41 16 49 2 5 -10 11 -12 15 -5 3 6 1 14 -6 19 -17 10 -69 13 -63 3z"/>
<path d="M1490 1060 c0 -33 3 -60 8 -61 4 0 16 -2 26 -4 11 -2 26 0 34 4 12 7
11 9 -2 14 -10 4 -15 3 -11 -3 8 -14 -7 -12 -26 3 -12 9 -16 26 -14 60 2 26
-1 47 -6 47 -5 0 -9 -27 -9 -60z"/>
<path d="M2614 1045 c3 -19 26 -44 26 -28 0 18 -12 43 -20 43 -5 0 -7 -7 -6
-15z"/>
<path d="M2530 1034 c0 -10 31 -36 37 -31 3 3 -2 13 -10 22 -16 15 -27 19 -27
9z"/>
<path d="M2583 1003 c0 -9 4 -10 12 -3 7 5 15 7 18 3 4 -3 7 -1 7 5 0 6 -8 10
-18 9 -10 0 -19 -7 -19 -14z"/>
</g>
</svg>
